<svg width="64" height="64" viewBox="0 0 64 64" xmlns="http://www.w3.org/2000/svg">
  <!-- Pixelated Red Lotus -->
  <rect x="28" y="8" width="8" height="8" fill="#ff4444"/>
  <rect x="20" y="16" width="8" height="8" fill="#ff6666"/>
  <rect x="28" y="16" width="8" height="8" fill="#ff2222"/>
  <rect x="36" y="16" width="8" height="8" fill="#ff6666"/>
  <rect x="12" y="24" width="8" height="8" fill="#ff8888"/>
  <rect x="20" y="24" width="8" height="8" fill="#ff4444"/>
  <rect x="28" y="24" width="8" height="8" fill="#ff0000"/>
  <rect x="36" y="24" width="8" height="8" fill="#ff4444"/>
  <rect x="44" y="24" width="8" height="8" fill="#ff8888"/>
  <rect x="8" y="32" width="8" height="8" fill="#ffaaaa"/>
  <rect x="16" y="32" width="8" height="8" fill="#ff6666"/>
  <rect x="24" y="32" width="8" height="8" fill="#ff2222"/>
  <rect x="32" y="32" width="8" height="8" fill="#ff2222"/>
  <rect x="40" y="32" width="8" height="8" fill="#ff6666"/>
  <rect x="48" y="32" width="8" height="8" fill="#ffaaaa"/>
  <rect x="12" y="40" width="8" height="8" fill="#ff8888"/>
  <rect x="20" y="40" width="8" height="8" fill="#ff4444"/>
  <rect x="28" y="40" width="8" height="8" fill="#ff0000"/>
  <rect x="36" y="40" width="8" height="8" fill="#ff4444"/>
  <rect x="44" y="40" width="8" height="8" fill="#ff8888"/>
  <rect x="20" y="48" width="8" height="8" fill="#ff6666"/>
  <rect x="28" y="48" width="8" height="8" fill="#ff2222"/>
  <rect x="36" y="48" width="8" height="8" fill="#ff6666"/>
  <rect x="28" y="56" width="8" height="8" fill="#ff4444"/>
</svg>